<?xml version="1.0" encoding="UTF-8" standalone="no"?>
<!-- Created with Inkscape (http://www.inkscape.org/) -->

<svg
   width="1000"
   height="1000"
   id="svg2905"
   version="1.1"
   inkscape:version="1.3 (0e150ed6c4, 2023-07-21)"
   sodipodi:docname="bullet_logo.svg"
   xmlns:inkscape="http://www.inkscape.org/namespaces/inkscape"
   xmlns:sodipodi="http://sodipodi.sourceforge.net/DTD/sodipodi-0.dtd"
   xmlns="http://www.w3.org/2000/svg"
   xmlns:svg="http://www.w3.org/2000/svg"
   xmlns:rdf="http://www.w3.org/1999/02/22-rdf-syntax-ns#"
   xmlns:cc="http://creativecommons.org/ns#"
   xmlns:dc="http://purl.org/dc/elements/1.1/">
  <defs
     id="defs3">
    <inkscape:perspective
       sodipodi:type="inkscape:persp3d"
       inkscape:vp_x="0 : 938.10366 : 1"
       inkscape:vp_y="0 : 1000 : 0"
       inkscape:vp_z="337.9371 : 938.10366 : 1"
       inkscape:persp3d-origin="168.96855 : 916.7513 : 1"
       id="perspective23" />
    <inkscape:perspective
       id="perspective2846"
       inkscape:persp3d-origin="0.5 : 874.37993 : 1"
       inkscape:vp_z="1 : 874.54659 : 1"
       inkscape:vp_y="0 : 1000 : 0"
       inkscape:vp_x="0 : 874.54659 : 1"
       sodipodi:type="inkscape:persp3d" />
    <inkscape:perspective
       id="perspective2860"
       inkscape:persp3d-origin="0.5 : 874.37993 : 1"
       inkscape:vp_z="1 : 874.54659 : 1"
       inkscape:vp_y="0 : 1000 : 0"
       inkscape:vp_x="0 : 874.54659 : 1"
       sodipodi:type="inkscape:persp3d" />
    <inkscape:perspective
       id="perspective2885"
       inkscape:persp3d-origin="0.5 : 874.37993 : 1"
       inkscape:vp_z="1 : 874.54659 : 1"
       inkscape:vp_y="0 : 1000 : 0"
       inkscape:vp_x="0 : 874.54659 : 1"
       sodipodi:type="inkscape:persp3d" />
    <inkscape:perspective
       id="perspective2912"
       inkscape:persp3d-origin="0.5 : 874.37993 : 1"
       inkscape:vp_z="1 : 874.54659 : 1"
       inkscape:vp_y="0 : 1000 : 0"
       inkscape:vp_x="0 : 874.54659 : 1"
       sodipodi:type="inkscape:persp3d" />
    <inkscape:perspective
       id="perspective2939"
       inkscape:persp3d-origin="0.5 : 874.37993 : 1"
       inkscape:vp_z="1 : 874.54659 : 1"
       inkscape:vp_y="0 : 1000 : 0"
       inkscape:vp_x="0 : 874.54659 : 1"
       sodipodi:type="inkscape:persp3d" />
    <inkscape:perspective
       id="perspective2966"
       inkscape:persp3d-origin="0.5 : 874.37993 : 1"
       inkscape:vp_z="1 : 874.54659 : 1"
       inkscape:vp_y="0 : 1000 : 0"
       inkscape:vp_x="0 : 874.54659 : 1"
       sodipodi:type="inkscape:persp3d" />
    <inkscape:perspective
       id="perspective2993"
       inkscape:persp3d-origin="0.5 : 874.37993 : 1"
       inkscape:vp_z="1 : 874.54659 : 1"
       inkscape:vp_y="0 : 1000 : 0"
       inkscape:vp_x="0 : 874.54659 : 1"
       sodipodi:type="inkscape:persp3d" />
    <inkscape:perspective
       id="perspective3020"
       inkscape:persp3d-origin="0.5 : 874.37993 : 1"
       inkscape:vp_z="1 : 874.54659 : 1"
       inkscape:vp_y="0 : 1000 : 0"
       inkscape:vp_x="0 : 874.54659 : 1"
       sodipodi:type="inkscape:persp3d" />
    <inkscape:perspective
       id="perspective3047"
       inkscape:persp3d-origin="0.5 : 874.37993 : 1"
       inkscape:vp_z="1 : 874.54659 : 1"
       inkscape:vp_y="0 : 1000 : 0"
       inkscape:vp_x="0 : 874.54659 : 1"
       sodipodi:type="inkscape:persp3d" />
    <inkscape:perspective
       id="perspective3074"
       inkscape:persp3d-origin="0.5 : 874.37993 : 1"
       inkscape:vp_z="1 : 874.54659 : 1"
       inkscape:vp_y="0 : 1000 : 0"
       inkscape:vp_x="0 : 874.54659 : 1"
       sodipodi:type="inkscape:persp3d" />
    <inkscape:perspective
       id="perspective3101"
       inkscape:persp3d-origin="0.5 : 874.37993 : 1"
       inkscape:vp_z="1 : 874.54659 : 1"
       inkscape:vp_y="0 : 1000 : 0"
       inkscape:vp_x="0 : 874.54659 : 1"
       sodipodi:type="inkscape:persp3d" />
    <inkscape:perspective
       id="perspective3128"
       inkscape:persp3d-origin="0.5 : 874.37993 : 1"
       inkscape:vp_z="1 : 874.54659 : 1"
       inkscape:vp_y="0 : 1000 : 0"
       inkscape:vp_x="0 : 874.54659 : 1"
       sodipodi:type="inkscape:persp3d" />
    <inkscape:perspective
       id="perspective3155"
       inkscape:persp3d-origin="0.5 : 874.37993 : 1"
       inkscape:vp_z="1 : 874.54659 : 1"
       inkscape:vp_y="0 : 1000 : 0"
       inkscape:vp_x="0 : 874.54659 : 1"
       sodipodi:type="inkscape:persp3d" />
    <inkscape:perspective
       id="perspective3182"
       inkscape:persp3d-origin="0.5 : 874.37993 : 1"
       inkscape:vp_z="1 : 874.54659 : 1"
       inkscape:vp_y="0 : 1000 : 0"
       inkscape:vp_x="0 : 874.54659 : 1"
       sodipodi:type="inkscape:persp3d" />
    <inkscape:perspective
       id="perspective3209"
       inkscape:persp3d-origin="0.5 : 874.37993 : 1"
       inkscape:vp_z="1 : 874.54659 : 1"
       inkscape:vp_y="0 : 1000 : 0"
       inkscape:vp_x="0 : 874.54659 : 1"
       sodipodi:type="inkscape:persp3d" />
  </defs>
  <sodipodi:namedview
     id="base"
     pagecolor="#ffffff"
     bordercolor="#666666"
     borderopacity="1.0"
     inkscape:pageopacity="0.0"
     inkscape:pageshadow="2"
     inkscape:zoom="0.90509675"
     inkscape:cx="556.84655"
     inkscape:cy="461.27665"
     inkscape:document-units="px"
     inkscape:current-layer="g1"
     showgrid="false"
     inkscape:window-width="1895"
     inkscape:window-height="1355"
     inkscape:window-x="1759"
     inkscape:window-y="572"
     inkscape:window-maximized="0"
     inkscape:showpageshadow="0"
     inkscape:pagecheckerboard="1"
     inkscape:deskcolor="#505050" />
  <metadata
     id="metadata2909">
    <rdf:RDF>
      <cc:Work
         rdf:about="">
        <dc:format>image/svg+xml</dc:format>
        <dc:type
           rdf:resource="http://purl.org/dc/dcmitype/StillImage" />
      </cc:Work>
    </rdf:RDF>
  </metadata>
  <g
     inkscape:label="Layer 1"
     inkscape:groupmode="layer"
     id="layer1"
     transform="matrix(1.1050363,0,0,1.1050363,-4.0923429,-9.3413305)">
    <g
       id="g1"
       transform="matrix(6.6366935,0,0,6.6366935,-6.6987429,61.739897)">
      <ellipse
         style="fill:#363636;fill-opacity:1;stroke-width:0.131728"
         id="path1"
         cx="64.117523"
         cy="59.931023"
         rx="59.01796"
         ry="56.567829" />
      <path
         d="m 129.47851,41.72058 0.009,3.65905 0.2456,0.289588 -0.25465,-3.948638 z m 0,0 0.25466,3.948637 -0.009,-3.587237 -0.24563,-0.3614 z m 0.0813,32.929112 0.009,3.659038 0.2438,-0.356163 -0.25287,-3.302875 z m 0,0 0.25285,3.302875 -0.009,-3.587237 -0.24381,0.284362 z m 7.63744,-32.910575 -0.008,36.551075 0.0941,-0.3556 -0.0868,-36.195475 z m 0,0 0.0868,36.195475 0.008,-35.834662 -0.0941,-0.360813 z m -16.32939,3.55075 8.61953,0.08975 -0.009,-3.65905 -8.61046,3.569288 z m 11.68814,0.08975 4.64125,-3.640512 h -4.6503 l 0.009,3.640512 z m 0,0 4.63401,32.910563 0.008,-36.551075 -4.64123,3.640512 z m -10.73087,3.537438 7.66226,-3.537438 -8.61953,-0.08975 0.95727,3.6272 z m 0,0 10.73087,-3.537438 h -3.06861 z m 0,0 c 8.51115,10.037587 -0.85302,17.155075 10.8033,25.732625 -0.0241,-9.756688 -0.0484,-19.513375 -0.0724,-29.270063 -11.65945,1.091163 -10.87402,3.537438 -10.73088,3.537438 z m 10.8033,25.732625 4.56158,3.6405 -4.63401,-32.910563 0.0724,29.270063 z m -11.76057,-29.359825 8.61049,-3.569288 h -9.83223 z m 1.64735,7.298987 10.11322,22.060838 c -6.69132,-8.577538 -2.2872,-17.824913 -10.8033,-25.732625 z m 0.4188,3.7019 9.69442,18.358938 -10.11322,-22.060838 z m 0.14686,3.716963 9.54756,14.641975 -9.69442,-18.358938 z m -0.12642,3.717537 9.67402,10.924438 -9.54756,-14.641975 z m -0.39842,3.703625 10.07244,7.220813 -9.67402,-10.924438 z m -0.669,3.674125 10.74144,3.546688 -10.07244,-7.220813 z m -0.93754,3.631825 8.61036,-0.08513 -7.67282,-3.546687 -0.93754,3.631825 z m 8.61036,-0.08513 h 3.06862 L 121.88703,71.103 Z m -8.61036,0.08513 8.61941,3.5739 -0.009,-3.659037 -8.61032,0.08512 z m 11.68802,3.555363 h 4.55253 l -4.56157,-3.6405 0.009,3.6405 z m -12.89006,0.0185 h 9.82145 l -8.61941,-3.5739 z"
         style="display:inline;fill:#d3d3d3;fill-opacity:1;fill-rule:nonzero;stroke:none;stroke-width:1.26342"
         id="path2851"
         sodipodi:nodetypes="cccccccccccccccccccccccccccccccccccccccccccccccccccccccccsccccccccccccccccccccccccccccccccccccccccccccccccccccccccc" />
      <path
         id="path3456"
         style="display:inline;fill:#ff9a00;fill-opacity:1;fill-rule:nonzero;stroke:none"
         d="M 142.75889 172.81197 L 139.74161 172.71141 L 139.74161 172.71162 L 136.73647 172.42442 L 136.73647 172.42421 L 133.75732 171.95229 L 133.75604 171.95229 L 133.75604 171.95208 L 130.81183 171.2963 L 130.81098 171.2963 L 127.91365 170.45942 L 157.61564 170.52887 L 154.71405 171.35212 L 151.76622 171.99426 L 148.78323 172.45255 L 145.77682 172.72547 L 145.77 172.72547 L 142.75889 172.81197 z M 157.61564 170.52887 L 127.92046 170.4592 L 127.91365 170.4592 L 127.91365 170.45942 L 125.07575 169.44464 L 122.30753 168.25685 L 119.62091 166.89969 L 117.02611 165.37912 L 114.53273 163.70089 L 112.15205 161.87181 L 109.89175 159.89892 L 107.76226 157.78989 L 105.77084 155.55345 L 103.92642 153.19855 L 102.23519 150.73372 L 100.70439 148.16918 L 99.340201 145.51494 L 98.147732 142.78166 L 97.131886 139.97998 L 96.296284 137.121 L 95.644549 134.21599 L 95.179663 131.27626 L 94.902691 128.3133 L 94.8147 125.33927 L 94.916966 122.36566 L 95.208425 119.4042 L 95.687586 116.46659 L 96.353596 113.565 L 97.202194 110.70963 L 120.79313 110.79869 L 118.84198 120.86959 L 138.65843 124.02344 L 141.20572 110.87582 L 141.20977 110.85494 L 162.39617 110.92503 L 162.39638 110.92503 L 162.39638 110.92525 L 162.39702 110.92525 L 162.39638 110.92503 L 162.39638 110.92482 L 162.3983 110.92525 L 188.6145 110.92418 L 189.32376 111.20925 L 189.2835 111.20882 L 163.61932 111.20967 L 162.40022 110.92567 L 162.39894 110.92567 L 163.61911 111.20989 L 162.70467 111.23673 L 160.53556 111.03753 L 160.5345 111.03731 L 160.53386 111.03731 L 160.53258 111.03731 L 159.61175 111.17942 L 160.53386 111.03731 L 161.79365 111.31982 L 160.88966 111.45938 L 159.99653 111.65496 L 159.99611 111.65496 L 159.11747 111.90445 L 158.25587 112.20848 L 157.4158 112.56534 L 156.59958 112.97334 L 155.81128 113.43077 L 155.05344 113.93614 L 154.32927 114.48795 L 153.64217 115.08301 L 152.99384 115.71941 L 152.38749 116.39458 L 151.82566 117.10618 L 151.31007 117.85124 L 150.84284 118.62633 L 150.42589 119.42934 L 150.06114 120.25578 L 149.74965 121.10374 L 149.49313 121.96917 L 149.2918 122.84908 L 149.14713 123.73901 L 149.05914 124.63704 L 149.05935 124.63704 L 149.0291 125.53805 L 147.5147 125.53911 L 147.51449 125.53911 L 147.51407 125.53911 L 147.51407 125.53933 L 147.51407 125.53954 L 149.02846 125.53848 L 149.0291 125.53805 L 149.05637 126.43927 L 147.62805 127.37458 L 147.62784 127.37458 L 147.62784 127.3748 L 147.7725 128.28326 L 147.62805 127.3748 L 149.05637 126.43927 L 149.05658 126.43927 L 149.14117 127.33709 L 149.28242 128.22766 L 149.48035 129.10842 L 148.23334 130.06504 L 147.97426 129.18129 L 148.23313 130.06504 L 148.23334 130.06504 L 148.23334 130.06525 L 149.48035 129.10842 L 149.73431 129.97428 L 150.04282 130.82373 L 150.4048 131.65166 L 150.81876 132.45594 L 151.2828 133.23232 L 151.79604 133.97929 L 152.35553 134.69281 L 152.95954 135.37011 L 153.60509 136.00864 L 154.29028 136.60626 L 155.01232 137.16041 L 155.76846 137.66812 L 156.55484 138.12875 L 157.36956 138.5393 L 158.20879 138.89873 L 159.06889 139.20595 L 159.94689 139.45885 L 160.83959 139.6572 L 161.74316 139.79995 L 161.41143 140.17471 L 161.41164 140.17471 L 161.41228 140.17471 L 162.65375 139.88624 L 163.56819 139.91628 L 189.25431 139.9052 L 188.24528 142.647 L 187.06346 145.32127 L 186.30882 145.71883 L 187.51471 142.9913 L 186.30861 145.71862 L 184.93164 148.36647 L 186.30882 145.71883 L 187.06346 145.32148 L 185.71333 147.91735 L 184.20064 150.42436 L 182.53115 152.83316 L 180.71123 155.13352 L 178.74857 157.31712 L 176.65083 159.3748 L 174.42547 161.29848 L 172.0825 163.0809 L 171.02873 163.83319 L 173.41857 162.01562 L 175.68825 160.05296 L 177.82796 157.95415 L 177.82796 157.95394 L 175.68825 160.05275 L 173.41836 162.01541 L 171.02852 163.83298 L 168.52768 165.4995 L 165.92521 167.00814 L 163.2322 168.35273 L 160.45865 169.52773 L 160.45183 169.52773 L 145.58038 169.95362 L 162.01246 160.35784 L 152.36107 143.4581 L 135.1132 153.53049 L 144.50978 169.9843 L 144.76438 170.43001 L 145.58017 169.95362 L 145.58038 169.95362 L 160.45865 169.52773 L 157.61564 170.52887 z M 161.41164 140.17471 L 161.74316 139.79995 L 162.65375 139.88602 L 161.41164 140.17471 z M 161.79365 111.31982 L 160.53556 111.03753 L 162.70467 111.23695 L 161.79365 111.31982 z M 120.79313 110.79869 L 97.650035 110.71113 L 120.79526 110.78761 L 120.79313 110.79869 z M 97.202194 110.70963 L 97.202194 110.70942 L 97.350267 110.71006 L 97.202194 110.70963 z M 179.82982 155.7273 L 181.68617 153.38072 L 183.3889 150.92376 L 184.93164 148.36668 L 183.38869 150.92355 L 181.68596 153.3805 L 179.82982 155.7273 z M 121.56162 148.35858 L 141.28306 144.67721 L 138.10939 125.56063 L 118.38774 129.2418 L 121.56162 148.35858 z M 151.5227 135.56847 L 151.52291 135.56847 L 150.90718 134.87774 L 151.5227 135.56847 z M 150.33619 134.14973 L 149.81314 133.38806 L 149.51657 132.89228 L 149.81293 133.38806 L 150.33619 134.14973 z M 149.19571 132.31725 L 148.91725 131.77566 L 148.6603 131.18742 L 148.91703 131.77566 L 149.19571 132.31725 z M 147.62059 127.29597 L 147.54198 126.45951 L 147.54198 126.45909 L 147.51492 125.56639 L 147.54176 126.45909 L 147.54176 126.45951 L 147.54176 126.45973 L 147.62059 127.29597 z M 189.32376 111.20861 L 188.6145 110.92375 L 188.61429 110.92354 L 162.39617 110.92461 L 141.20977 110.85451 L 142.34493 104.99529 L 122.52847 101.84143 L 120.79526 110.78719 L 97.202407 110.70921 L 98.231889 107.91286 L 99.437567 105.18491 L 100.81454 102.53706 L 102.35749 99.979972 L 104.06065 97.523022 L 105.91636 95.176434 L 107.91822 92.949583 L 110.05857 90.850779 L 112.32782 88.888329 L 114.71766 87.070544 L 117.21892 85.404028 L 119.82096 83.895598 L 122.51462 82.551008 L 125.28796 81.37601 L 128.13096 80.374864 L 131.03213 79.551407 L 133.97996 78.909259 L 136.96337 78.451191 L 139.96936 78.178268 L 142.98729 78.091554 L 146.00457 78.192116 L 149.00971 78.479314 L 151.99056 78.951444 L 154.9352 79.60744 L 157.83253 80.44432 L 160.67085 81.458888 L 163.43865 82.646883 L 166.1257 84.004043 L 168.72049 85.524617 L 171.21345 87.202638 L 171.21729 87.205621 L 172.26403 87.953018 L 174.59847 89.746088 L 176.81381 91.680415 L 178.90175 93.747687 L 180.85398 95.940662 L 182.66239 98.249326 L 184.32081 100.66601 L 185.82114 103.17985 L 187.15849 105.78231 L 188.32752 108.46212 L 189.32376 111.20861 z M 154.44602 101.41767 L 154.17289 81.736712 L 134.41949 81.481472 L 134.69242 101.16243 L 154.44602 101.41767 z "
         transform="matrix(1.25,0,0,-1.25,-116.32037,216.96323)" />
    </g>
  </g>
</svg>
