<?xml version="1.0" encoding="UTF-8" standalone="no"?>
<!-- Created with Inkscape (http://www.inkscape.org/) -->

<svg
   width="1000"
   height="1000"
   id="svg2905"
   version="1.1"
   inkscape:version="1.3 (0e150ed6c4, 2023-07-21)"
   sodipodi:docname="bullet_logo.svg"
   xmlns:inkscape="http://www.inkscape.org/namespaces/inkscape"
   xmlns:sodipodi="http://sodipodi.sourceforge.net/DTD/sodipodi-0.dtd"
   xmlns="http://www.w3.org/2000/svg"
   xmlns:svg="http://www.w3.org/2000/svg"
   xmlns:rdf="http://www.w3.org/1999/02/22-rdf-syntax-ns#"
   xmlns:cc="http://creativecommons.org/ns#"
   xmlns:dc="http://purl.org/dc/elements/1.1/">
  <defs
     id="defs3">
    <inkscape:perspective
       sodipodi:type="inkscape:persp3d"
       inkscape:vp_x="0 : 938.10366 : 1"
       inkscape:vp_y="0 : 1000 : 0"
       inkscape:vp_z="337.9371 : 938.10366 : 1"
       inkscape:persp3d-origin="168.96855 : 916.7513 : 1"
       id="perspective23" />
    <inkscape:perspective
       id="perspective2846"
       inkscape:persp3d-origin="0.5 : 874.37993 : 1"
       inkscape:vp_z="1 : 874.54659 : 1"
       inkscape:vp_y="0 : 1000 : 0"
       inkscape:vp_x="0 : 874.54659 : 1"
       sodipodi:type="inkscape:persp3d" />
    <inkscape:perspective
       id="perspective2860"
       inkscape:persp3d-origin="0.5 : 874.37993 : 1"
       inkscape:vp_z="1 : 874.54659 : 1"
       inkscape:vp_y="0 : 1000 : 0"
       inkscape:vp_x="0 : 874.54659 : 1"
       sodipodi:type="inkscape:persp3d" />
    <inkscape:perspective
       id="perspective2885"
       inkscape:persp3d-origin="0.5 : 874.37993 : 1"
       inkscape:vp_z="1 : 874.54659 : 1"
       inkscape:vp_y="0 : 1000 : 0"
       inkscape:vp_x="0 : 874.54659 : 1"
       sodipodi:type="inkscape:persp3d" />
    <inkscape:perspective
       id="perspective2912"
       inkscape:persp3d-origin="0.5 : 874.37993 : 1"
       inkscape:vp_z="1 : 874.54659 : 1"
       inkscape:vp_y="0 : 1000 : 0"
       inkscape:vp_x="0 : 874.54659 : 1"
       sodipodi:type="inkscape:persp3d" />
    <inkscape:perspective
       id="perspective2939"
       inkscape:persp3d-origin="0.5 : 874.37993 : 1"
       inkscape:vp_z="1 : 874.54659 : 1"
       inkscape:vp_y="0 : 1000 : 0"
       inkscape:vp_x="0 : 874.54659 : 1"
       sodipodi:type="inkscape:persp3d" />
    <inkscape:perspective
       id="perspective2966"
       inkscape:persp3d-origin="0.5 : 874.37993 : 1"
       inkscape:vp_z="1 : 874.54659 : 1"
       inkscape:vp_y="0 : 1000 : 0"
       inkscape:vp_x="0 : 874.54659 : 1"
       sodipodi:type="inkscape:persp3d" />
    <inkscape:perspective
       id="perspective2993"
       inkscape:persp3d-origin="0.5 : 874.37993 : 1"
       inkscape:vp_z="1 : 874.54659 : 1"
       inkscape:vp_y="0 : 1000 : 0"
       inkscape:vp_x="0 : 874.54659 : 1"
       sodipodi:type="inkscape:persp3d" />
    <inkscape:perspective
       id="perspective3020"
       inkscape:persp3d-origin="0.5 : 874.37993 : 1"
       inkscape:vp_z="1 : 874.54659 : 1"
       inkscape:vp_y="0 : 1000 : 0"
       inkscape:vp_x="0 : 874.54659 : 1"
       sodipodi:type="inkscape:persp3d" />
    <inkscape:perspective
       id="perspective3047"
       inkscape:persp3d-origin="0.5 : 874.37993 : 1"
       inkscape:vp_z="1 : 874.54659 : 1"
       inkscape:vp_y="0 : 1000 : 0"
       inkscape:vp_x="0 : 874.54659 : 1"
       sodipodi:type="inkscape:persp3d" />
    <inkscape:perspective
       id="perspective3074"
       inkscape:persp3d-origin="0.5 : 874.37993 : 1"
       inkscape:vp_z="1 : 874.54659 : 1"
       inkscape:vp_y="0 : 1000 : 0"
       inkscape:vp_x="0 : 874.54659 : 1"
       sodipodi:type="inkscape:persp3d" />
    <inkscape:perspective
       id="perspective3101"
       inkscape:persp3d-origin="0.5 : 874.37993 : 1"
       inkscape:vp_z="1 : 874.54659 : 1"
       inkscape:vp_y="0 : 1000 : 0"
       inkscape:vp_x="0 : 874.54659 : 1"
       sodipodi:type="inkscape:persp3d" />
    <inkscape:perspective
       id="perspective3128"
       inkscape:persp3d-origin="0.5 : 874.37993 : 1"
       inkscape:vp_z="1 : 874.54659 : 1"
       inkscape:vp_y="0 : 1000 : 0"
       inkscape:vp_x="0 : 874.54659 : 1"
       sodipodi:type="inkscape:persp3d" />
    <inkscape:perspective
       id="perspective3155"
       inkscape:persp3d-origin="0.5 : 874.37993 : 1"
       inkscape:vp_z="1 : 874.54659 : 1"
       inkscape:vp_y="0 : 1000 : 0"
       inkscape:vp_x="0 : 874.54659 : 1"
       sodipodi:type="inkscape:persp3d" />
    <inkscape:perspective
       id="perspective3182"
       inkscape:persp3d-origin="0.5 : 874.37993 : 1"
       inkscape:vp_z="1 : 874.54659 : 1"
       inkscape:vp_y="0 : 1000 : 0"
       inkscape:vp_x="0 : 874.54659 : 1"
       sodipodi:type="inkscape:persp3d" />
    <inkscape:perspective
       id="perspective3209"
       inkscape:persp3d-origin="0.5 : 874.37993 : 1"
       inkscape:vp_z="1 : 874.54659 : 1"
       inkscape:vp_y="0 : 1000 : 0"
       inkscape:vp_x="0 : 874.54659 : 1"
       sodipodi:type="inkscape:persp3d" />
  </defs>
  <sodipodi:namedview
     id="base"
     pagecolor="#ffffff"
     bordercolor="#666666"
     borderopacity="1.0"
     inkscape:pageopacity="0.0"
     inkscape:pageshadow="2"
     inkscape:zoom="3.620387"
     inkscape:cx="157.85605"
     inkscape:cy="83.554603"
     inkscape:document-units="px"
     inkscape:current-layer="layer1"
     showgrid="false"
     inkscape:window-width="1895"
     inkscape:window-height="1355"
     inkscape:window-x="1759"
     inkscape:window-y="572"
     inkscape:window-maximized="0"
     inkscape:showpageshadow="0"
     inkscape:pagecheckerboard="1"
     inkscape:deskcolor="#505050" />
  <metadata
     id="metadata2909">
    <rdf:RDF>
      <cc:Work
         rdf:about="">
        <dc:format>image/svg+xml</dc:format>
        <dc:type
           rdf:resource="http://purl.org/dc/dcmitype/StillImage" />
      </cc:Work>
    </rdf:RDF>
  </metadata>
  <g
     inkscape:label="Layer 1"
     inkscape:groupmode="layer"
     id="layer1"
     transform="matrix(1.1050363,0,0,1.1050363,-4.0923429,-9.3413305)">
    <g
       id="g1"
       transform="matrix(1.3223461,0,0,1.3223461,1.971145,19.411009)">
      <path
         d="m 196.77118,140.19412 0.007,-2.92724 0.19233,-0.23167 -0.19942,3.15891 z m 0,0 0.19942,-3.15891 -0.007,2.86979 -0.19235,0.28912 z m 0.0637,-26.34329 0.007,-2.92723 0.19092,0.28493 -0.19802,2.6423 z m 0,0 0.19801,-2.6423 -0.007,2.86979 -0.19093,-0.22749 z m 5.98085,26.32846 -0.006,-29.24086 0.0737,0.28448 -0.068,28.95638 z m 0,0 0.068,-28.95638 0.006,28.66773 -0.0737,0.28865 z m -12.78748,-2.8406 6.74992,-0.0718 -0.007,2.92724 -6.74282,-2.85543 z m 9.15294,-0.0718 3.63454,2.91241 h -3.64163 l 0.007,-2.91241 z m 0,0 3.62887,-26.32845 0.006,29.24086 -3.63453,-2.91241 z m -8.40331,-2.82995 6.00029,2.82995 -6.74992,0.0718 0.74963,-2.90176 z m 0,0 8.40331,2.82995 h -2.40302 z m 0,0 c 6.66505,-8.03007 -0.66799,-13.72406 8.46003,-20.5861 -0.0189,7.80535 -0.0379,15.6107 -0.0567,23.41605 -9.13047,-0.87293 -8.5154,-2.82995 -8.40331,-2.82995 z m 8.46003,-20.5861 3.57215,-2.9124 -3.62887,26.32845 0.0567,-23.41605 z m -9.20966,23.48786 6.74284,2.85543 h -7.69958 z m 1.29003,-5.83919 7.91963,-17.64867 c -5.23995,6.86203 -1.7911,14.25993 -8.46003,20.5861 z m 0.32796,-2.96152 7.59167,-14.68715 -7.91963,17.64867 z m 0.11501,-2.97357 7.47666,-11.71358 -7.59167,14.68715 z m -0.099,-2.97403 7.57569,-8.73955 -7.47666,11.71358 z m -0.312,-2.9629 7.88769,-5.77665 -7.57569,8.73955 z m -0.52389,-2.9393 8.41158,-2.83735 -7.88769,5.77665 z m -0.73419,-2.90546 6.74274,0.0681 -6.00855,2.83735 -0.73419,-2.90546 z m 6.74274,0.0681 h 2.40303 l -8.41158,2.83735 z m -6.74274,-0.0681 6.74983,-2.85912 -0.007,2.92723 -6.74271,-0.0681 z m 9.15285,-2.84429 h 3.56507 l -3.57215,2.9124 0.007,-2.9124 z m -10.09416,-0.0148 h 7.69114 l -6.74983,2.85912 z"
         style="display:inline;fill:#b3b3b3;fill-opacity:1;fill-rule:nonzero;stroke:none"
         id="path2851"
         transform="matrix(1.25,0,0,-1.25,-116.32037,216.96323)"
         sodipodi:nodetypes="cccccccccccccccccccccccccccccccccccccccccccccccccccccccccsccccccccccccccccccccccccccccccccccccccccccccccccccccccccc" />
      <path
         d="m 139.96938,78.178204 3.01784,-0.08664 3.01736,0.100539 -6.0352,-0.0139 z m 0,0 6.0352,0.0139 -9.04122,0.258995 3.00602,-0.272893 z m -3.00602,0.272894 9.04122,-0.258995 3.00507,0.287257 -12.04629,-0.02826 z m 0,0 12.04629,0.02826 -15.02963,0.429959 2.98334,-0.458221 z m -2.98334,0.45822 15.02963,-0.429958 2.98097,0.47212 -18.0106,-0.04216 z m 0,0 18.0106,0.04216 -20.95849,0.599996 z m -2.94789,0.642158 20.95849,-0.599996 2.94461,0.656057 z m 0,0 23.9031,0.05605 -26.80421,0.767253 2.90111,-0.823314 z m -2.90111,0.823314 26.80421,-0.767253 2.89732,0.836751 -29.70153,-0.06949 z m 0,0 29.70153,0.06949 -32.54451,0.93173 2.84298,-1.001228 z m -2.84298,1.001228 32.54451,-0.93173 2.83825,1.014664 -35.38276,-0.08293 z m 0,0 35.38276,0.08293 -38.15628,1.092038 2.77352,-1.174972 z m -2.77352,1.174972 38.15628,-1.092038 2.76786,1.187945 -40.92414,-0.09591 z m 0,0 40.92414,0.09591 -43.6178,1.248639 2.69366,-1.344547 z m -2.69366,1.344546 43.6178,-1.248639 2.68702,1.357055 z m 0,0 46.30482,0.108416 -48.90679,1.400145 z m -2.60197,1.508561 48.90679,-1.400145 2.59489,1.520607 z m 0,0 51.50168,0.120462 -54.00299,1.546087 z m -2.50131,1.666549 54.00299,-1.546087 2.49282,1.678134 z m 0,0 56.49581,0.132047 -58.8856,1.685548 z m -2.38979,1.817595 58.8856,-1.685548 2.38127,1.829175 z m 0,0 61.26687,0.143627 -63.53615,1.818982 z m -2.26928,1.962609 63.53615,-1.818982 2.25984,1.972804 z m 0,0 65.79599,0.153822 -67.93627,1.945006 z m -2.14028,2.098828 67.93627,-1.945006 2.12987,2.109019 z m 0,0 70.06614,0.164013 -72.06795,2.062688 z m -2.00181,2.226701 72.06795,-2.062688 1.99094,2.236432 z m 0,0 74.05889,0.173744 -75.91467,2.172957 z m -1.85578,2.346701 75.91467,-2.172957 1.84491,2.35504 z m 0,0 77.75958,0.182083 -79.46272,2.274887 z m -1.70314,2.45697 79.46272,-2.274887 1.69086,2.464847 z m 0,0 81.15358,0.18996 -82.69653,2.36709 z m -1.54295,2.55705 82.69653,-2.36709 1.53065,2.56446 z m 0,0 84.22718,0.19737 -85.604246,2.45049 z m -1.377066,2.64786 85.604246,-2.45049 1.36432,2.65435 z m 0,0 86.968566,0.20386 -88.174093,2.52414 z m -1.205527,2.728 88.174093,-2.52414 1.19277,2.7331 z m 0,0 89.366863,0.20896 -90.396594,2.58762 z m -1.029731,2.79658 90.396594,-2.58762 1.01555,2.80168 z m 0,0 91.412144,0.21406 -26.2182,9.5e-4 -65.193944,-0.21544 z m 0,0 65.193944,0.21545 -0.93286,0.0273 -64.261084,-0.24278 z m 0,0 64.261084,0.24278 -0.92955,0.0849 -63.331534,-0.32757 z m 0,0 63.331534,0.32758 -0.92198,0.14223 z m 0,0 62.409554,0.46981 -0.91112,0.19923 z m 0,0 61.498434,0.66904 -0.89647,0.25481 z m 0,0 60.601964,0.92385 -0.87898,0.31043 z m 0,0 59.722984,1.23428 -0.85677,0.36371 z m 0,0 58.866214,1.59799 -0.83267,0.41606 z m 0,0 58.033544,2.01405 -0.80384,0.46656 z m 0,0 57.229704,2.48061 -58.07844,0.37482 z m -0.848736,2.85543 58.07844,-0.37482 -0.77313,0.51568 z m 0,0 57.30531,0.14086 -0.73815,0.56246 z m 0,0 56.56716,0.70332 -0.70129,0.60694 z m 0,0 55.86587,1.31026 -0.66113,0.64957 z m 0,0 55.20474,1.95983 -0.61812,0.68848 z m 0,0 54.58662,2.64831 -55.252473,0.25344 z m -0.665853,2.90175 55.252473,-0.25344 -0.57323,0.72603 z m 0,0 54.679243,0.47259 -0.52598,0.75984 z m 0,0 54.153263,1.23243 -0.47682,0.79041 z m 0,0 53.676443,2.02284 -0.42484,0.81915 z m 0,0 53.251603,2.84199 -53.730789,0.0954 0.479186,-2.93742 z m -0.479186,2.93743 53.730789,-0.0954 -0.37238,0.84323 -53.358409,-0.74779 z m 0,0 53.358409,0.74779 -0.31757,0.86502 z m 0,0 53.040839,1.61281 -0.2618,0.88262 z m 0,0 52.779039,2.49543 -53.070614,0.4661 z m -0.291575,2.96153 53.070614,-0.4661 -0.20509,0.89698 z m 0,0 52.865524,0.43088 -0.14792,0.9081 z m 0,0 52.717604,1.33898 -0.0894,0.91552 -52.628283,-2.2545 z m 0,0 52.628284,2.2545 -52.73036,0.71907 z m -0.102076,2.97357 52.73036,-0.71907 -0.0311,0.91923 -52.699161,-0.20016 z m 0,0 52.69916,0.20016 0.0279,0.91967 -52.72705,-1.11983 z m 0,0 52.72705,1.11983 0.0861,0.91552 -52.813061,-2.03535 z m 0,0 52.81306,2.03535 0.1446,0.90856 z m 0,0 52.95766,2.94391 -52.869762,0.0301 -0.0879,-2.97403 z m 0.08789,2.97403 52.86976,-0.0301 0.20179,0.89791 -53.07155,-0.86779 z m 0,0 53.07155,0.86779 0.25898,0.884 z m 0,0 53.33053,1.75179 0.31472,0.86548 z m 0,0 53.64525,2.61727 -53.368324,0.34563 z m 0.276926,2.9629 53.368334,-0.34563 0.36908,0.84509 z m 0,0 53.737414,0.49946 0.42201,0.82008 z m 0,0 54.159424,1.31954 0.47398,0.79227 z m 0,0 54.633394,2.11181 0.52315,0.76169 z m 0,0 55.156544,2.8735 -54.691534,0.0663 -0.46501,-2.93976 z m 0.46501,2.93976 54.691534,-0.0663 0.57087,0.72787 -55.262404,-0.66161 z m 0,0 55.262404,0.66161 0.61576,0.69081 z m 0,0 55.878154,1.35242 0.65876,0.65142 z m 0,0 56.536924,2.00384 0.69894,0.60973 z m 0,0 57.235864,2.61357 -56.58419,0.29143 z m 0.651674,2.905 56.58419,-0.29143 0.73625,0.56478 z m 0,0 57.32044,0.27335 0.77122,0.51845 z m 0,0 58.09166,0.7918 0.80243,0.46934 z m 0,0 58.8941,1.26114 0.83078,0.41883 z m 0,0 59.72488,1.67997 0.85583,0.36695 z m 0,0 60.58071,2.04692 0.87756,0.3132 z m 0,0 61.45827,2.36012 0.89599,0.25808 z m 0,0 62.35427,2.6182 0.91016,0.202 z m 0,0 63.26443,2.8202 -62.428925,0.0389 -0.835505,-2.85912 z m 0.835505,2.85912 62.428925,-0.0389 0.92151,0.14548 -63.350435,-0.10656 z m 0,0 63.350435,0.10656 0.92907,0.0881 -64.279505,-0.1946 z m 0,0 64.279505,0.1946 0.93285,0.0306 -65.212355,-0.22517 z m 65.212365,0.22517 26.19979,-0.0111 -90.396128,2.58762 64.196338,-2.57651 z m -65.212365,-0.22517 65.212365,0.22517 -64.196338,2.57651 z m 1.016027,2.80168 90.396128,-2.58762 -1.02926,2.79703 z m 0,0 89.366868,0.20941 -88.174574,2.5237 z m 1.192294,2.73311 88.174574,-2.5237 -1.20599,2.72756 z m 0,0 86.968584,0.20386 -85.60427,2.45048 z m 1.364314,2.65434 85.60427,-2.45048 -1.37708,2.64785 z m 0,0 84.22719,0.19737 -82.69653,2.3671 z m 1.53066,2.56447 82.69653,-2.3671 -1.54294,2.55705 z m 0,0 81.15358,0.18995 -79.46225,2.27489 z m 1.69133,2.46484 79.46225,-2.27489 -1.70267,2.45698 z m 0,0 77.75959,0.18209 -75.91515,2.17294 z m 1.84444,2.35503 75.91515,-2.17294 -1.85627,2.34669 z m 0,0 74.05888,0.17375 -72.06746,2.06269 z m 1.99142,2.23644 72.06746,-2.06269 -2.0018,2.2267 z m 0,0 70.06566,0.16401 -67.93625,1.94501 z m 2.12941,2.10902 67.93625,-1.94501 -2.1398,2.09883 z m 0,0 65.79645,0.15382 -63.53617,1.81898 z m 2.26028,1.9728 63.53617,-1.81898 -2.26976,1.96261 z m 0,0 61.26641,0.14363 -58.88558,1.68554 z m 2.38083,1.82917 58.88558,-1.68554 -2.38979,1.81759 z m 0,0 56.49579,0.13205 -54.00251,1.54608 z m 2.49328,1.67813 54.00251,-1.54608 -2.50083,1.66655 z m 0,0 51.50168,0.12047 -48.9068,1.40014 z m 2.59488,1.52061 48.9068,-1.40014 -2.60247,1.50856 z m 0,0 46.30434,0.10842 -43.61777,1.24864 z m 2.68657,1.35706 43.61777,-1.24864 -2.69317,1.34454 z m 0,0 40.9246,0.0959 -38.15629,1.09205 z m 2.76831,1.18795 38.15629,-1.09205 -2.77353,1.17498 -35.38276,-0.0829 z m 0,0 35.38276,0.0829 -32.54498,0.93173 -2.83778,-1.01466 z m 2.83778,1.01466 32.54498,-0.93173 -2.84298,1.00123 -29.702,-0.0696 z m 0,0 29.702,0.0696 -26.80467,0.76725 -2.89733,-0.83676 z m 2.89733,0.83675 26.80467,-0.76725 -2.90157,0.82331 -23.90309,-0.056 z m 0,0 23.90309,0.056 -20.95803,0.6 -2.94506,-0.65606 z m 2.94507,0.65606 20.95803,-0.6 -2.9479,0.64216 -18.01013,-0.0421 z m 0,0 18.01013,0.0421 -15.02963,0.42996 -2.9805,-0.47212 z m 2.9805,0.47212 15.02963,-0.42996 -2.98286,0.45822 -12.04677,-0.0283 z m 0,0 12.04677,0.0283 -9.0417,0.259 -3.00507,-0.28726 z m 3.00507,0.28726 9.04169,-0.259 -3.00649,0.27289 -6.0352,-0.0138 z m 0,0 6.0352,0.0138 -3.01784,0.0866 -3.01736,-0.10054 z m 21.72171,-61.75924 2.15585,0.25761 -0.91441,0.0269 -1.24144,-0.28448 z m 0,0 0.93286,-0.0273 1.223,0.28494 -2.15586,-0.25761 z m -0.92955,0.0849 2.17099,0.19969 -0.91112,0.0829 -1.25987,-0.28262 z m 0,0 0.92955,-0.0849 1.24144,0.28448 -2.17099,-0.19968 z m -0.92198,0.14223 2.18185,0.14039 -0.90402,0.13946 z m 0,0 0.92198,-0.14223 1.25987,0.28262 z m -0.91113,0.19924 2.18896,0.0807 -0.89316,0.19552 -1.2958,-0.27614 z m 0,0 0.91113,-0.19924 1.27783,0.27985 -2.18896,-0.0807 z m -0.89646,0.25481 2.19226,0.0213 -0.87899,0.24972 -1.31327,-0.27104 z m 0,0 0.89646,-0.25481 1.2958,0.27613 -2.19226,-0.0213 z m -0.87899,0.31043 2.19225,-0.0394 -0.86148,0.30394 -1.33077,-0.26455 z m 0,0 0.87899,-0.31043 1.31326,0.27105 -2.19225,0.0394 z m -0.85677,0.3637 2.18754,-0.0991 -0.84024,0.35676 -1.34729,-0.25761 z m 0,0 0.85677,-0.3637 1.33077,0.26455 -2.18754,0.0991 z m -0.83267,0.41607 2.17997,-0.15846 -0.81613,0.40818 z m 0,0 0.83267,-0.41607 1.3473,0.25761 z m -0.80384,0.46656 2.16768,-0.21684 -0.78825,0.4573 z m 0,0 0.80384,-0.46656 1.36384,0.24972 z m -0.77313,0.51566 2.15256,-0.2752 -0.758,0.50547 z m 0,0 0.77313,-0.51566 1.37943,0.24046 z m -0.73815,0.56247 2.13271,-0.3322 -0.72398,0.5518 z m 0,0 0.73815,-0.56247 1.39456,0.23027 z m -0.70129,0.60695 2.11002,-0.38735 -0.68711,0.59492 z m 0,0 0.70129,-0.60695 1.40873,0.2196 z m -0.66113,0.64957 2.08404,-0.442 -0.64836,0.63659 z m 0,0 0.66113,-0.64957 1.42291,0.20757 z m -0.61812,0.68848 2.0538,-0.49389 -0.60632,0.67505 z m 0,0 0.61812,-0.68848 1.43568,0.19459 z m -0.57323,0.72603 2.02071,-0.54487 -0.56189,0.71165 z m 0,0 0.57323,-0.72603 1.44748,0.18116 z m -0.52598,0.75983 1.9848,-0.59305 -0.51557,0.74502 z m 0,0 0.52598,-0.75983 1.45882,0.16678 z m -0.47682,0.79042 1.94605,-0.63845 -0.46737,0.77513 z m 0,0 0.47682,-0.79042 1.46923,0.15197 z m -0.42484,0.81915 1.90352,-0.68247 -0.4168,0.80292 z m 0,0 0.42484,-0.81915 1.47868,0.13668 z m -0.37238,0.84323 1.85911,-0.72278 -0.36484,0.82657 z m 0,0 0.37238,-0.84323 1.48672,0.12045 z m -0.31756,0.86501 1.81182,-0.76122 -0.31142,0.84787 -1.5004,-0.0866 z m 0,0 0.31756,-0.86501 1.49426,0.10379 z m -0.2618,0.88263 1.76221,-0.79598 -0.25661,0.86547 -1.5056,-0.0695 z m 0,0 0.2618,-0.88263 1.5004,0.0866 -1.76221,0.79598 z m -0.2051,0.89697 1.71069,-0.82748 -0.20131,0.87984 -1.50938,-0.0523 z m 0,0 0.2051,-0.89697 1.50559,0.0695 -1.71069,0.82749 z m -0.14792,0.90811 1.6573,-0.85575 -0.14461,0.89003 -1.51269,-0.0343 z m 0,0 0.14792,-0.90811 1.50938,0.0524 -1.6573,0.85575 z m -0.0894,0.91552 1.60202,-0.88124 -0.0879,0.89791 -1.51411,-0.0167 z m 0,0 0.0894,-0.91552 1.51269,0.0342 -1.60201,0.88124 z m -0.0311,0.91921 1.54531,-0.90254 -0.0301,0.90115 -1.51507,9.6e-4 z m 0,0 0.0311,-0.91921 1.51411,0.0167 -1.5453,0.90254 z m 0.0279,0.91969 1.48718,-0.92108 0.0274,0.90116 -1.51459,0.0199 z m 0,0 -0.0279,-0.91969 1.51507,-9.4e-4 -1.48718,0.92107 z m 0.0861,0.91552 1.42858,-0.93544 0.0846,0.8979 -1.51317,0.0376 z m 0,0 -0.0861,-0.91552 1.51459,-0.0199 -1.42858,0.93544 z m 0.1446,0.90856 1.36857,-0.9461 0.14129,0.89049 -1.50986,0.0556 z m 0,0 -0.1446,-0.90856 1.51317,-0.0376 -1.36857,0.9461 z m 0.20179,0.8979 1.30807,-0.95351 0.19802,0.88077 -1.50609,0.0728 z m 0,0 -0.20179,-0.8979 1.50986,-0.0556 z m 0.25898,0.88401 1.24711,-0.95675 0.25376,0.86594 -1.50087,0.0908 z m 0,0 -0.25898,-0.88401 1.50609,-0.0728 -1.24711,0.95674 z m 0.31472,0.86548 1.18615,-0.95629 0.30859,0.84927 z m 0,0 -0.31472,-0.86548 1.50087,-0.0908 -1.18615,0.95629 z m 0.36908,0.84509 1.12566,-0.95211 0.36199,0.82794 z m 0,0 -0.36908,-0.84509 1.49474,-0.10702 z m 0.42201,0.82008 1.06564,-0.94425 0.41398,0.80433 z m 0,0 -0.42201,-0.82008 1.48765,-0.12417 z m 0.47398,0.79226 1.00564,-0.93218 0.46406,0.7765 z m 0,0 -0.47398,-0.79226 1.47962,-0.13992 z m 0.52314,0.7617 0.94656,-0.91738 0.51321,0.74688 z m 0,0 -0.52314,-0.7617 1.4697,-0.15568 z m 0.57087,0.72786 0.8889,-0.89836 0.55953,0.71351 z m 0,0 -0.57087,-0.72786 1.45977,-0.1705 z m 0.61576,0.69081 0.83267,-0.87566 0.60394,0.67737 z m 0,0 -0.61576,-0.69081 1.44843,-0.18485 z m 0.65876,0.65143 0.77785,-0.84972 0.64553,0.63845 z m 0,0 -0.65876,-0.65143 1.43661,-0.19829 z m 0.69894,0.60972 0.72444,-0.82099 0.68523,0.59767 z m 0,0 -0.69894,-0.60972 1.42338,-0.21127 z m 0.73625,0.56478 0.67342,-0.7881 0.72208,0.55412 z m 0,0 -0.73625,-0.56478 1.40967,-0.22332 z m 0.77123,0.51846 0.62427,-0.75244 0.75612,0.50781 z m 0,0 -0.77123,-0.51846 1.3955,-0.23398 z m 0.80243,0.46934 0.57796,-0.71397 0.78635,0.46053 z m 0,0 -0.80243,-0.46934 1.38039,-0.24463 z m 0.83078,0.41883 0.53353,-0.67227 0.81471,0.4105 z m 0,0 -0.83078,-0.41883 1.36431,-0.25344 z m 0.85583,0.36695 0.49241,-0.62872 0.83929,0.35953 z m 0,0 -0.85583,-0.36695 1.34824,-0.26177 z m 0.87756,0.3132 0.45414,-0.58239 0.86008,0.30718 z m 0,0 -0.87756,-0.3132 1.3317,-0.26919 z m 0.89599,0.25807 0.41823,-0.53328 0.87803,0.25297 z m 0,0 -0.89599,-0.25807 1.31422,-0.27521 z m 0.91017,0.20201 0.38609,-0.48232 0.89269,0.19831 z m 0,0 -0.91017,-0.20201 1.29626,-0.28031 z m 0.92152,0.14548 0.35726,-0.42949 0.90356,0.1427 z m 0,0 -0.92152,-0.14548 1.27878,-0.28401 z m 0.92907,0.0881 0.33175,-0.37482 0.91064,0.0861 -1.24239,0.28865 z m 0,0 -0.92907,-0.0881 1.26082,-0.28679 -0.33175,0.37482 z m 0.93285,0.0306 0.30954,-0.31922 0.91442,0.0301 -1.22396,0.28911 z m 0,0 -0.93285,-0.0306 1.24239,-0.28865 -0.30954,0.31923 z m 0.052,-29.28024 26.92753,0.28355 -25.70453,9.5e-4 -1.223,-0.28494 z m 0,0 26.2182,-9.5e-4 0.70933,0.28494 -26.92753,-0.28356 z m 11.19849,-21.893117 -1.33076,-1.079065 2.3345,1.793036 z m 0,0 -2.38129,-1.829176 1.05053,0.750111 z m 2.25984,1.972804 -1.2561,-1.258833 2.21541,1.934349 z m 0,0 -2.25984,-1.972804 1.00374,0.713971 z m 2.12987,2.109019 -1.17056,-1.433503 2.08782,2.06732 z m 0,0 -2.12987,-2.109019 0.95931,0.675516 z m 1.99094,2.236431 -1.07368,-1.602614 1.95219,2.19288 z m 0,0 -1.99094,-2.236431 0.91726,0.633817 z m 1.84491,2.355041 -0.9664,-1.764775 1.80853,2.308708 z m 0,0 -1.84491,-2.355041 0.87851,0.590266 z m 1.69086,2.464842 -0.84873,-1.920909 1.65825,2.416669 z m 0,0 -1.69086,-2.464842 0.84213,0.543933 z m 1.53065,2.56447 -0.72113,-2.06871 1.50041,2.51395 z m 0,0 -1.53065,-2.56447 0.80952,0.49576 z m 1.36432,2.65434 -1.36432,-2.65434 0.77928,0.44524 z m 2.13791,34.80531 -24.97583,-0.27801 25.6861,-0.0111 z m 0,0 -26.19979,0.0111 1.22396,-0.2891 z m -3.61233,8.17244 2.13176,-3.04539 -1.35012,2.59597 z m 0,0 1.37707,-2.64786 0.75469,-0.39753 z m -1.54294,2.55705 2.32458,-3.00647 -1.51271,2.50701 z m 0,0 1.54294,-2.55705 0.78164,-0.44942 z m -1.70267,2.45697 2.51454,-2.95643 -1.66959,2.40878 z m 0,0 1.70267,-2.45697 0.81187,-0.49946 z m -1.85627,2.34669 2.70122,-2.89434 -1.81987,2.30037 z m 0,0 1.85627,-2.34669 0.84495,-0.54765 z m -2.0018,2.22671 2.88315,-2.82068 -1.96259,2.18362 z m 0,0 2.0018,-2.22671 0.88135,-0.59397 z m -2.1398,2.09883 3.06036,-2.73589 -2.09774,2.05758 z m 0,0 2.1398,-2.09883 0.92056,-0.63706 z m -2.26976,1.9626 3.23238,-2.64091 -2.22534,1.92369 z m 0,0 2.26976,-1.9626 0.96262,-0.67831 z m -2.38979,1.8176 3.39683,-2.53482 -2.343,1.78239 z m 0,0 2.38979,-1.8176 1.00704,-0.71722 z m 15.28008,-18.11435 1.20599,-2.72755 0.73059,-0.34424 z m 0,0 1.93658,-3.07179 -1.1819,2.67426 z m 1.20599,-2.72755 1.02926,-2.79703 0.71027,-0.28912 z m 0,0 1.73953,-3.08615 -1.00894,2.74191 z m 1.09967,-32.06755 -1.01555,-2.80168 0.7287,0.34008 z m 0,0 -0.28685,-2.4616 0.99618,2.74653 z m -1.01555,-2.80168 -1.19277,-2.73311 0.75233,0.39336 z m 0,0 -0.44044,-2.33975 1.16914,2.67983 z m -1.19277,-2.73311 -0.58504,-2.2091 1.33737,2.60246 z"
         style="display:inline;fill:#ff9a00;fill-opacity:1;fill-rule:nonzero;stroke:none"
         id="path3456"
         transform="matrix(1.25,0,0,-1.25,-116.32037,216.96323)" />
      <rect
         transform="matrix(-1.0794238,-0.63035255,0.61990052,-1.08546,-116.32037,216.96323)"
         y="200.72401"
         x="-61.164524"
         height="19.461344"
         width="19.973602"
         id="rect3687"
         style="display:inline;fill:#000000;fill-opacity:1;stroke:none" />
      <rect
         transform="matrix(-1.2287765,-0.2293648,0.20472475,-1.2331212,-116.32037,216.96323)"
         y="148.80043"
         x="-115.70332"
         height="19.378403"
         width="20.062178"
         id="rect3687-1"
         style="display:inline;fill:#000000;fill-opacity:1;stroke:none" />
      <rect
         transform="matrix(-1.2344634,0.19646925,-0.23775399,-1.2271809,-116.32037,216.96323)"
         y="81.363007"
         x="-159.8067"
         height="19.38192"
         width="20.065802"
         id="rect3687-1-7"
         style="display:inline;fill:#000000;fill-opacity:1;stroke:none" />
      <rect
         transform="matrix(-0.01734471,1.2498797,-1.2498957,0.01614864,-116.32037,216.96323)"
         y="-153.07877"
         x="-99.449539"
         height="19.755077"
         width="19.68277"
         id="rect3687-1-7-4"
         style="display:inline;fill:#000000;fill-opacity:1;stroke:none" />
    </g>
  </g>
</svg>
